<svg width="466" height="457" xmlns="http://www.w3.org/2000/svg" xmlns:xlink="http://www.w3.org/1999/xlink" overflow="hidden"><defs><clipPath id="clip0"><rect x="416" y="155" width="466" height="457"/></clipPath><clipPath id="clip1"><rect x="565" y="274" width="223" height="219"/></clipPath><clipPath id="clip2"><rect x="565" y="274" width="223" height="219"/></clipPath><clipPath id="clip3"><rect x="565" y="274" width="223" height="219"/></clipPath><clipPath id="clip4"><rect x="417" y="155" width="464" height="456"/></clipPath><clipPath id="clip5"><rect x="417" y="155" width="464" height="456"/></clipPath><clipPath id="clip6"><rect x="417" y="155" width="464" height="456"/></clipPath></defs><g clip-path="url(#clip0)" transform="translate(-416 -155)"><g clip-path="url(#clip1)"><g clip-path="url(#clip2)"><g clip-path="url(#clip3)"><path d="M44.0281 25.0938 174.972 109.5 44.0281 193.906Z" fill="#FFC95A" transform="matrix(1.01826 0 0 1 565 274)"/></g></g></g><g clip-path="url(#clip4)"><g clip-path="url(#clip5)"><g clip-path="url(#clip6)"><path d="M346.279 221.722 179.079 107.722C176.746 106.142 173.736 105.967 171.243 107.282 168.758 108.596 167.2 111.18 167.2 114L167.2 342C167.2 344.82 168.758 347.404 171.251 348.718 172.36 349.311 173.584 349.6 174.8 349.6 176.297 349.6 177.794 349.152 179.079 348.278L346.279 234.278C348.354 232.864 349.6 230.516 349.6 228 349.6 225.484 348.354 223.136 346.279 221.722ZM182.4 327.613 182.4 128.387 328.51 228 182.4 327.613Z" fill="#FFC95A" transform="matrix(1.01754 0 0 1 417 155)"/><path d="M228 0C102.281 0 0 102.281 0 228 0 353.719 102.281 456 228 456 353.719 456 456 353.719 456 228 456 102.281 353.719 0 228 0ZM228 440.8C110.664 440.8 15.2 345.336 15.2 228 15.2 110.664 110.664 15.2 228 15.2 345.336 15.2 440.8 110.664 440.8 228 440.8 345.336 345.336 440.8 228 440.8Z" fill="#FFC95A" transform="matrix(1.01754 0 0 1 417 155)"/></g></g></g></g></svg>