<svg width="120" height="120" viewBox="0 0 120 120" fill="none" xmlns="http://www.w3.org/2000/svg">
<path d="M10.9098 10.0007H109.09C115.134 10.0007 120 14.461 120 20.0014V45.0004H0V20.0014C0 14.461 4.86557 10.0007 10.9098 10.0007Z" fill="#F05542"/>
<path d="M0 40V50V80.0001V110C0 115.541 4.86502 120 10.9091 120H109.091C115.135 120 120 115.541 120 110V80.0001V50V40H109.091H10.9091H0Z" fill="#E9EDED"/>
<path d="M32.7273 4.99999C32.7273 2.23857 30.2852 0 27.2727 0C24.2603 0 21.8182 2.23857 21.8182 4.99999V24.9999C21.8182 27.7613 24.2603 29.9999 27.2727 29.9999C30.2852 29.9999 32.7273 27.7613 32.7273 24.9999V4.99999Z" fill="#34485C"/>
<path d="M98.1818 4.99999C98.1818 2.23857 95.7397 0 92.7273 0C89.7148 0 87.2727 2.23857 87.2727 4.99999V24.9999C87.2727 27.7613 89.7148 29.9999 92.7273 29.9999C95.7397 29.9999 98.1818 27.7613 98.1818 24.9999V4.99999Z" fill="#34485C"/>
<path d="M98.1818 49.9998H87.2727V59.9997H98.1818V49.9998Z" fill="#CAD1D8"/>
<path d="M75.9091 50.292H65V60.292H75.9091V50.292Z" fill="#CAD1D8"/>
<path d="M54.5455 49.9998H43.6364V59.9997H54.5455V49.9998Z" fill="#CAD1D8"/>
<path d="M32.7273 49.9998H21.8182V59.9997H32.7273V49.9998Z" fill="#CAD1D8"/>
<path d="M98.1818 70.0002H87.2727V80.0002H98.1818V70.0002Z" fill="#CAD1D8"/>
<path d="M76.3636 70.0002H65.4545V80.0002H76.3636V70.0002Z" fill="#CAD1D8"/>
<path d="M54.5455 70.0002H43.6364V80.0002H54.5455V70.0002Z" fill="#CAD1D8"/>
<path d="M32.7273 70.0002H21.8182V80.0002H32.7273V70.0002Z" fill="#CAD1D8"/>
<path d="M76.3636 90H65.4545V100H76.3636V90Z" fill="#CAD1D8"/>
<path d="M54.5455 90H43.6364V100H54.5455V90Z" fill="#CAD1D8"/>
<path d="M32.7273 90H21.8182V100H32.7273V90Z" fill="#CAD1D8"/>
</svg>
