<svg width="150" height="150" viewBox="0 0 150 150" fill="none" xmlns="http://www.w3.org/2000/svg">
<g clip-path="url(#clip0_13_65)">
<path fill-rule="evenodd" clip-rule="evenodd" d="M106.25 42.375V35C106.252 34.3376 106.516 33.7028 106.984 33.2344C107.453 32.766 108.088 32.5019 108.75 32.5H115C115.662 32.5019 116.297 32.766 116.766 33.2344C117.234 33.7028 117.498 34.3376 117.5 35V51.375L129.75 61.125C130.055 61.3807 130.25 61.743 130.297 62.1379C130.343 62.5329 130.237 62.9306 130 63.25C129.871 63.4315 129.703 63.5819 129.508 63.6901C129.314 63.7982 129.097 63.8614 128.875 63.875H118.75V113.875C118.744 115.862 117.952 117.767 116.547 119.172C115.142 120.577 113.237 121.369 111.25 121.375H38.75C36.7627 121.369 34.8584 120.577 33.4531 119.172C32.0479 117.767 31.2558 115.862 31.25 113.875V63.875H21.125C20.9259 63.8829 20.7273 63.8494 20.5418 63.7768C20.3563 63.7042 20.1878 63.594 20.0469 63.4531C19.906 63.3122 19.7958 63.1437 19.7232 62.9582C19.6506 62.7726 19.6171 62.5741 19.625 62.375C19.6238 62.1496 19.6807 61.9277 19.7902 61.7307C19.8996 61.5336 20.058 61.3681 20.25 61.25L73.5 18.875C73.9395 18.5114 74.4921 18.3125 75.0625 18.3125C75.6329 18.3125 76.1855 18.5114 76.625 18.875L106.25 42.375Z" fill="#FA9013"/>
<path fill-rule="evenodd" clip-rule="evenodd" d="M76.5 29.25L110.75 55.875C111.036 56.1341 111.214 56.4909 111.25 56.875V111.25C111.248 111.912 110.984 112.547 110.516 113.016C110.047 113.484 109.412 113.748 108.75 113.75H41.25C40.5876 113.748 39.9528 113.484 39.4844 113.016C39.016 112.547 38.7519 111.912 38.75 111.25V57.375C38.7401 57.1793 38.781 56.9845 38.8686 56.8093C38.9562 56.6341 39.0876 56.4845 39.25 56.375L73.5 29.25C73.9156 28.8873 74.4485 28.6875 75 28.6875C75.5516 28.6875 76.0844 28.8873 76.5 29.25Z" fill="#FFAE28"/>
<path fill-rule="evenodd" clip-rule="evenodd" d="M76.5 40.875L102 59.625C102.162 59.7345 102.294 59.8841 102.381 60.0593C102.469 60.2345 102.51 60.4294 102.5 60.625V102.5C102.498 103.162 102.234 103.797 101.766 104.266C101.297 104.734 100.662 104.998 100 105H50C49.3376 104.998 48.7028 104.734 48.2344 104.266C47.766 103.797 47.5019 103.162 47.5 102.5V61.875C47.4901 61.6794 47.531 61.4845 47.6186 61.3093C47.7062 61.1341 47.8376 60.9845 48 60.875L73.5 40.875C73.9407 40.5698 74.464 40.4062 75 40.4062C75.5361 40.4062 76.0593 40.5698 76.5 40.875Z" fill="#FFC148"/>
<path fill-rule="evenodd" clip-rule="evenodd" d="M76.5 51.8751L93.25 64.5001C93.4124 64.6096 93.5438 64.7592 93.6314 64.9344C93.719 65.1096 93.7599 65.3044 93.75 65.5001V93.7501C93.7481 94.4125 93.4841 95.0473 93.0157 95.5157C92.5472 95.9841 91.9125 96.2481 91.25 96.2501H58.75C58.0876 96.2481 57.4528 95.9841 56.9844 95.5157C56.516 95.0473 56.2519 94.4125 56.25 93.7501V66.3751C56.2401 66.1794 56.281 65.9846 56.3686 65.8094C56.4562 65.6342 56.5876 65.4846 56.75 65.3751L73.5 52.0001C73.9149 51.6486 74.4352 51.4454 74.9786 51.4228C75.5219 51.4001 76.0573 51.5593 76.5 51.8751Z" fill="#FFD361"/>
<path fill-rule="evenodd" clip-rule="evenodd" d="M75.875 62.75L84.625 70.875C84.8521 71.1115 84.9854 71.4225 85 71.75V86.25C85.0101 86.4168 84.9847 86.5838 84.9254 86.74C84.8661 86.8962 84.7744 87.0381 84.6563 87.1563C84.5381 87.2744 84.3962 87.3661 84.24 87.4254C84.0838 87.4846 83.9168 87.5101 83.75 87.5H66.25C66.0832 87.5101 65.9162 87.4846 65.76 87.4254C65.6038 87.3661 65.4619 87.2744 65.3438 87.1563C65.2256 87.0381 65.1339 86.8962 65.0746 86.74C65.0154 86.5838 64.9899 86.4168 65 86.25V71.75C64.9954 71.5857 65.0266 71.4224 65.0913 71.2713C65.1561 71.1202 65.2529 70.985 65.375 70.875L74.125 62.75C74.3801 62.5671 74.6861 62.4687 75 62.4688C75.3139 62.4688 75.6199 62.5671 75.875 62.75Z" fill="#FFE780"/>
</g>
<defs>
<clipPath id="clip0_13_65">
<rect width="150" height="150" fill="white"/>
</clipPath>
</defs>
</svg>
