<svg width="120" height="120" viewBox="0 0 120 120" fill="none" xmlns="http://www.w3.org/2000/svg">
<g clip-path="url(#clip0_13_88)">
<path d="M107.93 19.5469L63.1406 0.867188C61.3125 0.0703125 59.2031 0.0703125 57.3516 0.867188L12.5859 19.5234C9.79688 20.6953 7.96875 23.3906 7.96875 26.4141V67.8281C7.96875 96.6328 31.4297 120.047 60.2344 120.047C89.0391 120.047 112.5 96.6094 112.5 67.8281V26.4141C112.5 23.4141 110.695 20.7187 107.93 19.5469ZM103.125 67.8516C103.125 91.4766 83.8594 110.695 60.2344 110.695C36.6094 110.695 17.3438 91.4766 17.3438 67.8516V27.7031L60.2344 9.82031L103.125 27.7031V67.8516Z" fill="url(#paint0_linear_13_88)"/>
<path d="M42.7031 56.4843C41.0859 54.4687 38.1328 54.1406 36.1172 55.7578C34.1015 57.3749 33.7734 60.3281 35.3906 62.3437L45.8906 75.4453C45.914 75.4687 45.9375 75.4921 45.9375 75.5156C45.9609 75.5625 46.0078 75.5859 46.0312 75.6328C46.0547 75.6562 46.0781 75.7031 46.125 75.7265L46.2422 75.8437C46.2656 75.8671 46.3125 75.8906 46.3359 75.9374L46.4531 76.0546L46.5469 76.1484C46.5937 76.1718 46.6172 76.2187 46.664 76.2421C46.7344 76.289 46.8047 76.3593 46.875 76.4062C46.8984 76.4062 46.8984 76.4296 46.9219 76.4296C46.9922 76.4765 47.0625 76.5234 47.1094 76.5468C47.1328 76.5703 47.1562 76.5703 47.1797 76.5937C47.25 76.6171 47.2969 76.664 47.3672 76.6875C47.3906 76.7109 47.414 76.7109 47.4375 76.7343C47.4844 76.7578 47.5547 76.7812 47.6015 76.8281C47.625 76.8515 47.6484 76.8515 47.6719 76.8749C47.7187 76.8984 47.789 76.9218 47.8359 76.9453C47.8594 76.9453 47.8828 76.9687 47.9297 76.9687C47.9765 76.9921 48.0469 77.0156 48.0937 77.0156C48.1172 77.0156 48.164 77.039 48.1875 77.039C48.2344 77.0625 48.3047 77.0624 48.3515 77.0859C48.375 77.0859 48.4219 77.1093 48.4453 77.1093C48.4922 77.1328 48.5625 77.1328 48.6094 77.1562C48.6328 77.1562 48.6797 77.1796 48.7031 77.1796C48.75 77.1796 48.8203 77.2031 48.8672 77.2031C48.914 77.2031 48.9375 77.2031 48.9844 77.2265C49.0312 77.2265 49.0781 77.2265 49.1484 77.25H49.5234C49.6406 77.25 49.7578 77.2499 49.8984 77.2265H49.9922C50.0859 77.2265 50.1797 77.2031 50.2734 77.2031C50.3203 77.2031 50.3437 77.1796 50.3906 77.1796C50.4609 77.1562 50.5547 77.1562 50.625 77.1328C50.6719 77.1328 50.7187 77.1093 50.7656 77.0859L50.9765 77.0156C51.0234 76.9921 51.0703 76.9921 51.1172 76.9687L51.3281 76.8984L51.4687 76.8281C51.539 76.8046 51.6094 76.7578 51.6562 76.7343L51.7969 76.664C51.914 76.5937 52.0078 76.5468 52.125 76.4765L85.8984 54.0234C88.0547 52.5937 88.6406 49.6874 87.2109 47.5312C85.7812 45.375 82.875 44.789 80.7187 46.2187L50.5078 66.3046L42.7031 56.4843Z" fill="url(#paint1_linear_13_88)"/>
</g>
<defs>
<linearGradient id="paint0_linear_13_88" x1="7.73437" y1="60.1582" x2="110.625" y2="60.1582" gradientUnits="userSpaceOnUse">
<stop stop-color="#FF884B"/>
<stop offset="0.35" stop-color="#FF634C"/>
<stop offset="0.655" stop-color="#FE4A4F"/>
<stop offset="1" stop-color="#FE4840"/>
</linearGradient>
<linearGradient id="paint1_linear_13_88" x1="7.73435" y1="61.3436" x2="110.625" y2="61.3436" gradientUnits="userSpaceOnUse">
<stop stop-color="#FF884B"/>
<stop offset="0.35" stop-color="#FF634C"/>
<stop offset="0.655" stop-color="#FE4A4F"/>
<stop offset="1" stop-color="#FE4840"/>
</linearGradient>
<clipPath id="clip0_13_88">
<rect width="120" height="120" fill="white"/>
</clipPath>
</defs>
</svg>
