<svg width="120" height="121" viewBox="0 0 120 121" fill="none" xmlns="http://www.w3.org/2000/svg">
<g clip-path="url(#clip0_13_98)">
<path d="M85.0219 69.9814L98.8031 112.281L83.3531 107.444L73.7344 120.456L60.975 81.2971" fill="#FF8A65"/>
<path d="M33.9094 70.9004L21.1969 112.282L36.6469 107.444L46.2656 120.457L58.1906 81.4941" fill="#FF8A65"/>
<path d="M63.8156 3.45651L67.3406 1.45963C68.243 0.948575 69.2387 0.623959 70.2689 0.505045C71.2991 0.38613 72.3426 0.47534 73.3377 0.767381C74.3327 1.05942 75.2589 1.54834 76.0614 2.20514C76.8639 2.86194 77.5264 3.67323 78.0094 4.59088L79.8844 8.18151C80.5066 9.36385 81.4241 10.3651 82.5477 11.0879C83.6714 11.8107 84.963 12.2305 86.2969 12.3065L90.3469 12.5315C91.3849 12.5901 92.4005 12.8571 93.3331 13.3167C94.2657 13.7762 95.0962 14.4188 95.7751 15.2062C96.454 15.9936 96.9674 16.9097 97.2847 17.8998C97.602 18.8898 97.7167 19.9337 97.6219 20.969L97.275 25.0096C97.1596 26.3411 97.3908 27.6799 97.946 28.8955C98.5013 30.1112 99.3618 31.1625 100.444 31.9471L103.725 34.3284C104.564 34.9368 105.271 35.7073 105.807 36.5942C106.342 37.4811 106.694 38.4665 106.842 39.4919C106.99 40.5173 106.93 41.5619 106.667 42.5639C106.404 43.5659 105.942 44.5049 105.309 45.3253L102.834 48.5315C102.017 49.5888 101.488 50.8394 101.297 52.1618C101.107 53.4843 101.262 54.8335 101.747 56.0784L103.219 59.8284C103.595 60.7935 103.774 61.8242 103.745 62.8597C103.715 63.8951 103.479 64.9141 103.049 65.8565C102.619 66.7988 102.004 67.6453 101.241 68.3458C100.478 69.0463 99.5818 69.5865 98.6062 69.9346L94.7906 71.294C93.5308 71.7419 92.4085 72.5083 91.5328 73.5187C90.6572 74.5291 90.058 75.749 89.7937 77.0596L88.9969 81.0346C88.7921 82.0533 88.3844 83.0204 87.798 83.8782C87.2117 84.736 86.4587 85.467 85.5839 86.0277C84.7092 86.5885 83.7305 86.9674 82.7062 87.142C81.6819 87.3166 80.633 87.2833 79.6219 87.044L75.675 86.1065C74.373 85.8018 73.0144 85.8393 71.7313 86.2156C70.4482 86.5918 69.2844 87.2939 68.3531 88.2534L65.5406 91.1596C64.8189 91.9027 63.9554 92.4934 63.0013 92.8967C62.0471 93.3001 61.0218 93.5079 59.9859 93.5079C58.9501 93.5079 57.9247 93.3001 56.9706 92.8967C56.0165 92.4934 55.153 91.9027 54.4312 91.1596L51.6187 88.2534C50.6875 87.2939 49.5237 86.5918 48.2406 86.2156C46.9575 85.8393 45.5988 85.8018 44.2969 86.1065L40.35 87.044C39.3389 87.2833 38.2899 87.3166 37.2656 87.142C36.2413 86.9674 35.2627 86.5885 34.3879 86.0277C33.5131 85.467 32.7602 84.736 32.1738 83.8782C31.5875 83.0204 31.1798 82.0533 30.975 81.0346L30.1781 77.0596C29.9138 75.749 29.3147 74.5291 28.439 73.5187C27.5634 72.5083 26.441 71.7419 25.1812 71.294L21.3656 69.9346C20.39 69.5865 19.4942 69.0463 18.7311 68.3458C17.9681 67.6453 17.3533 66.7988 16.9232 65.8565C16.4931 64.9141 16.2565 63.8951 16.2273 62.8597C16.198 61.8242 16.3769 60.7935 16.7531 59.8284L18.225 56.0784C18.7102 54.8335 18.865 53.4843 18.6745 52.1618C18.4839 50.8394 17.9544 49.5888 17.1375 48.5315L14.6625 45.3253C14.0298 44.5049 13.5682 43.5659 13.3049 42.5639C13.0416 41.5619 12.9821 40.5173 13.1299 39.4919C13.2776 38.4665 13.6296 37.4811 14.165 36.5942C14.7004 35.7073 15.4083 34.9368 16.2469 34.3284L19.5281 31.9471C20.6101 31.1625 21.4705 30.1112 22.0258 28.8955C22.5811 27.6799 22.8123 26.3411 22.6969 25.0096L22.35 20.969C22.2552 19.9337 22.3699 18.8898 22.6871 17.8998C23.0044 16.9097 23.5178 15.9936 24.1967 15.2062C24.8756 14.4188 25.7062 13.7762 26.6388 13.3167C27.5714 12.8571 28.587 12.5901 29.625 12.5315L33.675 12.3065C35.0089 12.2305 36.3004 11.8107 37.4241 11.0879C38.5478 10.3651 39.4653 9.36385 40.0875 8.18151L41.9625 4.59088C42.4454 3.66947 43.1089 2.8548 43.9136 2.19549C44.7183 1.53619 45.6476 1.04577 46.6459 0.75352C47.6443 0.461268 48.6913 0.373172 49.7245 0.494491C50.7577 0.615809 51.7558 0.944055 52.6594 1.45963L56.1844 3.45651C57.3481 4.11547 58.6626 4.46181 60 4.46181C61.3373 4.46181 62.6519 4.11547 63.8156 3.45651Z" fill="#FFE082"/>
<path d="M60 66.2598C70.6401 66.2598 79.2656 57.6343 79.2656 46.9941C79.2656 36.354 70.6401 27.7285 60 27.7285C49.3599 27.7285 40.7344 36.354 40.7344 46.9941C40.7344 57.6343 49.3599 66.2598 60 66.2598Z" fill="white"/>
<path d="M60 27.7285C63.8104 27.7285 67.5352 28.8584 70.7034 30.9754C73.8716 33.0923 76.341 36.1012 77.7991 39.6215C79.2573 43.1418 79.6388 47.0155 78.8955 50.7527C78.1521 54.4898 76.3172 57.9227 73.6229 60.617C70.9285 63.3113 67.4957 65.1462 63.7586 65.8896C60.0214 66.633 56.1477 66.2514 52.6274 64.7933C49.107 63.3351 46.0982 60.8658 43.9812 57.6976C41.8643 54.5293 40.7344 50.8045 40.7344 46.9941C40.7344 41.8846 42.7642 36.9843 46.3772 33.3713C49.9902 29.7583 54.8905 27.7285 60 27.7285ZM60 20.2285C54.7063 20.2285 49.5314 21.7983 45.1298 24.7393C40.7282 27.6804 37.2976 31.8606 35.2718 36.7514C33.246 41.6422 32.7159 47.0238 33.7487 52.2159C34.7814 57.4079 37.3306 62.1771 41.0739 65.9203C44.8171 69.6635 49.5863 72.2127 54.7783 73.2455C59.9703 74.2782 65.352 73.7482 70.2428 71.7224C75.1336 69.6965 79.3138 66.2659 82.2548 61.8643C85.1959 57.4627 86.7656 52.2879 86.7656 46.9941C86.7582 39.8977 83.9359 33.0941 78.9179 28.0762C73.9 23.0583 67.0964 20.236 60 20.2285Z" fill="#FFB74D"/>
</g>
<defs>
<clipPath id="clip0_13_98">
<rect width="120" height="120" fill="white" transform="translate(0 0.456543)"/>
</clipPath>
</defs>
</svg>
